# xmcd CD database file
#
# Track frame offsets:
#	150
#	13647
#	28027
#	51560
#	71002
#	85617
#	104325
#	125450
#	141037
#	156950
#
# Disc length: 2292 seconds
#
# Revision: 5
# Processed by: cddbd v1.5.2PL0 Copyright (c) Steve Scherf et al.
# Submitted via: CDex 1.51
#
DISCID=8408f20a
DTITLE=Thin Lizzy - Fighting
DYEAR=1975
DGENRE=Rock
TTITLE0=Rosalie
TTITLE1=For Those Who Love To Live
TTITLE2=Suicide
TTITLE3=Wild One
TTITLE4=Fighting My Way Back
TTITLE5=King's Vengeance
TTITLE6=Spirit Slips Away
TTITLE7=Silver Dollar
TTITLE8=Freedom Song
TTITLE9=Ballad Of A Hard Man
EXTD=YEAR: 1975
EXTT0=
EXTT1=
EXTT2=
EXTT3=
EXTT4=
EXTT5=
EXTT6=
EXTT7=
EXTT8=
EXTT9=
PLAYORDER=
